<svg xmlns="http://www.w3.org/2000/svg" viewBox="0 0 820 512">
  <defs>
    <linearGradient id="bg" x1="0" y1="0" x2="1" y2="1">
      <stop offset="0" stop-color="#07140a"/>
      <stop offset="0.62" stop-color="#08090d"/>
      <stop offset="1" stop-color="#030304"/>
    </linearGradient>
    <radialGradient id="glow" cx="50%" cy="50%" r="50%">
      <stop offset="0" stop-color="#7cff9b" stop-opacity="0.64"/>
      <stop offset="1" stop-color="#7cff9b" stop-opacity="0"/>
    </radialGradient>
    <filter id="blur"><feGaussianBlur stdDeviation="24"/></filter>
    <filter id="soft"><feGaussianBlur stdDeviation="8"/></filter>
  </defs>
  <rect width="820" height="512" rx="36" fill="url(#bg)"/>
  <circle cx="630" cy="120" r="190" fill="url(#glow)" opacity="0.32" filter="url(#blur)"/>
  <circle cx="146" cy="382" r="132" fill="#b7f7d4" opacity="0.07" filter="url(#blur)"/>
  <g opacity="0.40"><rect x="120" y="116" width="42" height="42" rx="10" fill="#7cff9b" opacity="0.14"/><rect x="194" y="116" width="42" height="42" rx="10" fill="#7cff9b" opacity="0.20"/><rect x="268" y="116" width="42" height="42" rx="10" fill="#7cff9b" opacity="0.26"/><rect x="342" y="116" width="42" height="42" rx="10" fill="#7cff9b" opacity="0.32"/><rect x="416" y="116" width="42" height="42" rx="10" fill="#7cff9b" opacity="0.38"/><rect x="490" y="116" width="42" height="42" rx="10" fill="#7cff9b" opacity="0.14"/><rect x="564" y="116" width="42" height="42" rx="10" fill="#7cff9b" opacity="0.20"/><rect x="638" y="116" width="42" height="42" rx="10" fill="#7cff9b" opacity="0.26"/><rect x="120" y="188" width="42" height="42" rx="10" fill="#7cff9b" opacity="0.32"/><rect x="194" y="188" width="42" height="42" rx="10" fill="#7cff9b" opacity="0.38"/><rect x="268" y="188" width="42" height="42" rx="10" fill="#7cff9b" opacity="0.14"/><rect x="342" y="188" width="42" height="42" rx="10" fill="#7cff9b" opacity="0.20"/><rect x="416" y="188" width="42" height="42" rx="10" fill="#7cff9b" opacity="0.26"/><rect x="490" y="188" width="42" height="42" rx="10" fill="#7cff9b" opacity="0.32"/><rect x="564" y="188" width="42" height="42" rx="10" fill="#7cff9b" opacity="0.38"/><rect x="638" y="188" width="42" height="42" rx="10" fill="#7cff9b" opacity="0.14"/><rect x="120" y="260" width="42" height="42" rx="10" fill="#7cff9b" opacity="0.20"/><rect x="194" y="260" width="42" height="42" rx="10" fill="#7cff9b" opacity="0.26"/><rect x="268" y="260" width="42" height="42" rx="10" fill="#7cff9b" opacity="0.32"/><rect x="342" y="260" width="42" height="42" rx="10" fill="#7cff9b" opacity="0.38"/><rect x="416" y="260" width="42" height="42" rx="10" fill="#7cff9b" opacity="0.14"/><rect x="490" y="260" width="42" height="42" rx="10" fill="#7cff9b" opacity="0.20"/><rect x="564" y="260" width="42" height="42" rx="10" fill="#7cff9b" opacity="0.26"/><rect x="638" y="260" width="42" height="42" rx="10" fill="#7cff9b" opacity="0.32"/><rect x="120" y="332" width="42" height="42" rx="10" fill="#7cff9b" opacity="0.38"/><rect x="194" y="332" width="42" height="42" rx="10" fill="#7cff9b" opacity="0.14"/><rect x="268" y="332" width="42" height="42" rx="10" fill="#7cff9b" opacity="0.20"/><rect x="342" y="332" width="42" height="42" rx="10" fill="#7cff9b" opacity="0.26"/><rect x="416" y="332" width="42" height="42" rx="10" fill="#7cff9b" opacity="0.32"/><rect x="490" y="332" width="42" height="42" rx="10" fill="#7cff9b" opacity="0.38"/><rect x="564" y="332" width="42" height="42" rx="10" fill="#7cff9b" opacity="0.14"/><rect x="638" y="332" width="42" height="42" rx="10" fill="#7cff9b" opacity="0.20"/></g>
  <g opacity="0.10" fill="#fff">
    <circle cx="128" cy="118" r="4"/>
    <circle cx="694" cy="374" r="5"/>
    <circle cx="574" cy="146" r="3"/>
    <circle cx="252" cy="405" r="3"/>
  </g>
  <rect x="28" y="28" width="764" height="456" rx="30" fill="none" stroke="#fff" stroke-width="2" opacity="0.08"/>
</svg>
