<svg xmlns="http://www.w3.org/2000/svg" viewBox="0 0 820 512">
  <defs>
    <linearGradient id="bg" x1="0" y1="0" x2="1" y2="1">
      <stop offset="0" stop-color="#06130d"/>
      <stop offset="0.62" stop-color="#08090d"/>
      <stop offset="1" stop-color="#030304"/>
    </linearGradient>
    <radialGradient id="glow" cx="50%" cy="50%" r="50%">
      <stop offset="0" stop-color="#00d084" stop-opacity="0.64"/>
      <stop offset="1" stop-color="#00d084" stop-opacity="0"/>
    </radialGradient>
    <filter id="blur"><feGaussianBlur stdDeviation="24"/></filter>
    <filter id="soft"><feGaussianBlur stdDeviation="8"/></filter>
  </defs>
  <rect width="820" height="512" rx="36" fill="url(#bg)"/>
  <circle cx="630" cy="120" r="190" fill="url(#glow)" opacity="0.32" filter="url(#blur)"/>
  <circle cx="146" cy="382" r="132" fill="#9cffd1" opacity="0.07" filter="url(#blur)"/>
  <g fill="none" stroke="#00d084" stroke-width="8" stroke-linecap="round" opacity="0.44"><path d="M160 346 C256 228, 348 228, 444 346"/><path d="M242 346 C308 276, 392 276, 458 346"/><path d="M324 346 C350 320, 376 320, 402 346"/></g><circle cx="604" cy="178" r="76" fill="#9cffd1" opacity="0.16"/>
  <g opacity="0.10" fill="#fff">
    <circle cx="128" cy="118" r="4"/>
    <circle cx="694" cy="374" r="5"/>
    <circle cx="574" cy="146" r="3"/>
    <circle cx="252" cy="405" r="3"/>
  </g>
  <rect x="28" y="28" width="764" height="456" rx="30" fill="none" stroke="#fff" stroke-width="2" opacity="0.08"/>
</svg>
