<svg xmlns="http://www.w3.org/2000/svg" viewBox="0 0 820 512">
  <defs>
    <linearGradient id="bg" x1="0" y1="0" x2="1" y2="1">
      <stop offset="0" stop-color="#12070b"/>
      <stop offset="0.62" stop-color="#08090d"/>
      <stop offset="1" stop-color="#030304"/>
    </linearGradient>
    <radialGradient id="glow" cx="50%" cy="50%" r="50%">
      <stop offset="0" stop-color="#e50914" stop-opacity="0.64"/>
      <stop offset="1" stop-color="#e50914" stop-opacity="0"/>
    </radialGradient>
    <filter id="blur"><feGaussianBlur stdDeviation="24"/></filter>
    <filter id="soft"><feGaussianBlur stdDeviation="8"/></filter>
  </defs>
  <rect width="820" height="512" rx="36" fill="url(#bg)"/>
  <circle cx="630" cy="120" r="190" fill="url(#glow)" opacity="0.32" filter="url(#blur)"/>
  <circle cx="146" cy="382" r="132" fill="#f5d0d0" opacity="0.07" filter="url(#blur)"/>
  <g fill="none" stroke="#e50914" stroke-width="3" opacity="0.42"><path d="M130 160 H690 V352 H130Z"/><path d="M205 160 V352M305 160V352M410 160V352M520 160V352M615 160V352"/><path d="M130 225H690M130 292H690"/></g><circle cx="410" cy="256" r="74" fill="#e50914" opacity="0.20"/>
  <g opacity="0.10" fill="#fff">
    <circle cx="128" cy="118" r="4"/>
    <circle cx="694" cy="374" r="5"/>
    <circle cx="574" cy="146" r="3"/>
    <circle cx="252" cy="405" r="3"/>
  </g>
  <rect x="28" y="28" width="764" height="456" rx="30" fill="none" stroke="#fff" stroke-width="2" opacity="0.08"/>
</svg>
